<svg xmlns="http://www.w3.org/2000/svg" enable-background="new 0 0 24 24" viewBox="0 0 24 24" id="topcoder">
  <path d="M2.358 15.765c.005-.023.013-.046.019-.069l-.002.002L2.358 15.765zM20.073 15.806l-.002-.001c.002.011.007.021.009.032L20.073 15.806zM1.985 15.849l-.037-.04c-.006.024-.013.049-.019.073L1.985 15.849zM9.916 11.342c.233-.094.466-.181.7-.268 1.023-.375 2.061-.69 3.113-.944.873-.21 1.744-.375 2.633-.509l.06-.016c-.241-.225-.496-.419-.752-.615-.481-.359-1.007-.66-1.563-.899-1.295-.554-2.723-.733-4.105-.478C9.249 7.747 8.511 8.003 7.835 8.363c-1.067.569-2 1.378-2.768 2.306l-.03.016.466.044.572.076c.813.134 1.594.3 2.391.478.301.076.587.15.873.226l-.051.087C9.498 11.505 9.705 11.422 9.916 11.342z"></path>
  <path d="M.089 13.502c.091.314.242.615.393.899.285.494.646.958 1.022 1.393l.444.483c.046-.18.093-.362.141-.541.08-.3.176-.598.266-.893.069-.216.15-.427.227-.643.09-.224.185-.448.277-.674.033-.076.061-.153.098-.229.102-.214.211-.425.322-.635.135-.241.256-.479.391-.704.18-.315.377-.6.586-.885l.016-.015c-.331-.016-.677-.016-1.008-.016-.24 0-.496.016-.736.045-.166.016-.33.031-.496.061-.121.016-.24.045-.361.075-.586.149-1.248.419-1.533 1.003-.031.076-.061.151-.091.241C.015 12.587 0 12.737 0 12.873 0 13.083.045 13.292.089 13.502zM23.909 11.635c-.031-.094-.076-.184-.121-.269-.091-.153-.211-.29-.331-.412-.21-.2-.468-.359-.723-.487-.376-.187-.781-.312-1.201-.405-.603-.136-1.205-.2-1.821-.225C18.87 9.797 18.028 9.832 17.2 9.913c.105.108.196.224.301.337.195.225.392.465.571.72.227.299.437.629.647.958.602.988 1.054 2.067 1.383 3.161.105.329.182.66.255 1.004.031.12.048.255.077.39l.08.016c.192-.026.376-.111.542-.209.345-.2.646-.471.936-.747.226-.213.444-.434.653-.667.12-.145.256-.295.376-.45.105-.142.21-.284.315-.434.076-.115.15-.229.212-.349C23.878 13.048 24.149 12.313 23.909 11.635z"></path>
  <path d="M16.803 10.006l-.041-.04c-.2.014-.399.045-.603.074-2.154.331-4.26.915-6.285 1.709.168.045.336.09.507.15.706.225 1.413.464 2.108.72 2.421.899 4.755 2.022 6.998 3.31l.584.345c-.495-2.282-1.545-4.491-3.185-6.181L16.803 10.006zM4.469 11.468c-.181.27-.354.525-.517.81-.15.239-.271.479-.392.72-.104.194-.21.389-.286.584-.029.045-.045.105-.06.15-.091.225-.195.449-.286.674-.074.18-.135.359-.195.539-.09.285-.18.555-.255.84-.039.126-.073.253-.102.379l.871-.837c.15-.142.15-.141.301-.279 1.533-1.349 3.318-2.366 5.18-3.205-.275-.076-.549-.136-.824-.194-1.053-.24-2.113-.435-3.188-.525C4.632 11.243 4.55 11.349 4.469 11.468z"></path>
</svg>
