<svg xmlns="http://www.w3.org/2000/svg" enable-background="new 0 0 28 28" viewBox="0 0 28 28" id="topcoder">
  <path fill="#FFAB66" d="M3.41,18.768l8.546-3.597c0,0,8.461,3.028,9.627,4.528c1.167,1.5,0.881-1.866,0.881-1.866s-1.969-7.717-10.508-8.301C3.417,8.949,2.402,16.338,3.41,18.768z"></path>
  <path d="M22.464,19c-0.099,0-0.197-0.029-0.281-0.086c-2.868-1.947-6.119-3.231-8.971-3.984c-3.379,1.296-6.653,2.843-8.535,3.817c-0.17,0.088-0.376,0.071-0.53-0.045c-0.112-0.084-2.736-2.087-2.025-4.175c0.428-1.258,2.68-1.729,6.698-1.4c1.248,0.102,2.722,0.34,4.312,0.739c4.61-1.749,9.675-3.079,11.799-1.568c0.869,0.618,1.21,1.616,1.016,2.967c-0.307,2.13-2.587,3.486-3.338,3.714C22.562,18.993,22.513,19,22.464,19z M14.816,14.338c2.525,0.781,5.229,1.954,7.71,3.602c0.681-0.313,2.22-1.35,2.431-2.817c0.139-0.964-0.059-1.621-0.605-2.009C22.806,12.012,18.881,12.899,14.816,14.338z M6.6,14.028c-2.23,0-3.378,0.372-3.532,0.821c-0.351,1.03,0.763,2.271,1.441,2.859c1.04-0.53,3.775-1.89,6.957-3.187c-1.004-0.203-1.928-0.334-2.727-0.399C7.939,14.059,7.227,14.028,6.6,14.028z"></path>
  <path d="M22.464,19c-0.276,0-0.5-0.224-0.5-0.5c0-4.448-3.912-8.5-8.207-8.5c-4.446,0-8.81,4.112-8.81,8.303c0,0.276-0.224,0.5-0.5,0.5s-0.5-0.224-0.5-0.5C3.948,13.521,8.715,9,13.757,9c4.819,0,9.207,4.528,9.207,9.5C22.964,18.776,22.741,19,22.464,19z"></path>
</svg>
