<svg xmlns="http://www.w3.org/2000/svg" viewBox="0 0 36 36" id="topcoder">
  <path fill="#EFEFEF" d="M8.114 5.564C6.309 12.241 1.61 15.891.74 19.109s-.847 10.475 13.955 14.477 19.432-4.501 20.388-8.041C39.564 8.973 11.311-6.262 8.114 5.564z"></path>
  <path fill="#A4AFC1" d="m30.41 16.183.707-.708 1.414 1.414-.707.708zM26.345 12.117l.707-.707 1.414 1.414-.707.707zM30.587 12.824l1.415-1.415.707.707-1.415 1.415zM8.487 14.551c-.827 0-1.5-.673-1.5-1.5s.673-1.5 1.5-1.5 1.5.673 1.5 1.5-.673 1.5-1.5 1.5zm0-2a.5.5 0 1 0 .002 1.002.5.5 0 0 0-.002-1.002z"></path>
  <path fill="#2FDF84" d="M17.859 13.05c-2.926 0-5.809 1.701-7.559 4.098a25.508 25.508 0 0 1 2.614.092c1.239.104 2.747.365 4.376.794 2.27-.887 4.655-1.678 6.71-2.063-1.584-1.75-3.77-2.921-6.141-2.921z"></path>
  <path fill="#F3F3F1" d="M24.014 15.968c-2.059.384-4.449 1.176-6.725 2.066 2.925.77 6.256 2.1 9.221 4.158 0-2.265-.969-4.517-2.511-6.221l.015-.003zM12.913 17.24a25.508 25.508 0 0 0-2.614-.092c-1.049 1.437-1.691 3.123-1.691 4.844 0 0 4.107-2.171 8.68-3.958-1.628-.429-3.135-.69-4.375-.794z"></path>
  <path fill="#2FDF84" d="M6.768 18.321c-.598 1.796 1.841 3.671 1.841 3.671 0-1.72.642-3.407 1.691-4.844-1.585.037-3.238.29-3.532 1.173zm17.231-2.351c1.541 1.704 2.511 3.956 2.511 6.221.602-.186 2.698-1.429 2.969-3.358.426-3.02-2.075-3.5-5.48-2.863z"></path>
  <path fill="#00B871" d="M15.163 17.24a25.508 25.508 0 0 0-2.614-.092c1.518-2.079 3.888-3.629 6.398-4.006a7.284 7.284 0 0 0-1.089-.092c-2.926 0-5.809 1.701-7.559 4.098a25.508 25.508 0 0 1 2.614.092c1.239.104 2.747.365 4.376.794.289-.113.582-.218.873-.327a24.178 24.178 0 0 0-2.999-.467z"></path>
  <path fill="#D5DBE1" d="M19.539 18.034c1.606-.628 3.264-1.199 4.828-1.621-.12-.149-.239-.3-.367-.442-2.056.385-4.44 1.175-6.711 2.062 2.925.77 6.256 2.1 9.221 4.158 0-.492-.054-.982-.141-1.467a30.903 30.903 0 0 0-6.83-2.69zm4.46-2.064c.001.001.001.001 0 0l.014-.002-.014.002zm-11.491 1.239a24.232 24.232 0 0 0-2.208-.062c-1.049 1.437-1.691 3.123-1.691 4.844 0 0 .915-.483 2.353-1.177.213-1.28.761-2.513 1.546-3.605z"></path>
  <path fill="#00B871" d="M26.249 15.97c.381-.072.749-.126 1.105-.168-.918-.153-2.072-.073-3.355.168 1.541 1.704 2.511 3.956 2.511 6.221.382-.118 1.361-.663 2.098-1.536-.325-1.724-1.168-3.368-2.359-4.685z"></path>
  <path d="M26.28 23a.753.753 0 0 1-.428-.134c-2.752-1.91-5.869-3.176-8.612-3.925a83.714 83.714 0 0 0-8.235 3.774.753.753 0 0 1-.808-.068c-.115-.089-2.816-2.197-2.067-4.446.172-.516.697-2.088 6.825-1.573 1.215.102 2.647.337 4.191.729 4.529-1.737 9.506-3.051 11.665-1.535.66.463 1.391 1.398 1.134 3.227-.32 2.275-2.637 3.669-3.444 3.919a.788.788 0 0 1-.221.032zm-6.703-4.92c2.245.768 4.599 1.854 6.785 3.317.659-.352 1.922-1.297 2.1-2.559.165-1.168-.212-1.581-.51-1.79-1.309-.919-4.636-.255-8.375 1.032zm-8.846-.054c-2.363 0-3.11.449-3.177.649-.28.842.595 1.901 1.204 2.477a93.153 93.153 0 0 1 5.912-2.788 21.52 21.52 0 0 0-1.839-.242 25.705 25.705 0 0 0-2.1-.096z"></path>
  <path d="M27.03 22.25h-1.5c0-4.317-3.702-8.25-7.768-8.25-4.218 0-8.357 3.988-8.357 8.053h-1.5c0-4.91 4.791-9.553 9.857-9.553 4.851 0 9.268 4.647 9.268 9.75z"></path>
</svg>
